<svg width="32" height="16" viewBox="0 0 32 16" fill="none" xmlns="http://www.w3.org/2000/svg">
<g clip-path="url(#clip0_60_525)">
<path d="M12.4088 10.3438C13.3771 9.02245 13.8108 7.38425 13.6231 5.75691C13.4354 4.12957 12.6402 2.6331 11.3966 1.56689C10.1529 0.500686 8.55254 -0.0566316 6.91563 0.00644151C5.27871 0.0695147 3.72598 0.748327 2.56806 1.90707C1.41014 3.06582 0.732442 4.61904 0.67054 6.256C0.608638 7.89296 1.1671 9.49292 2.2342 10.7358C3.3013 11.9787 4.79834 12.7728 6.42581 12.9593C8.05328 13.1459 9.69117 12.711 11.0118 11.7418H11.0108C11.0408 11.7818 11.0728 11.8198 11.1088 11.8568L14.9588 15.7068C15.1463 15.8944 15.4007 15.9999 15.6659 16C15.9312 16.0001 16.1856 15.8948 16.3733 15.7073C16.5609 15.5198 16.6664 15.2654 16.6665 15.0001C16.6666 14.7348 16.5613 14.4804 16.3738 14.2928L12.5238 10.4428C12.488 10.4066 12.4496 10.3731 12.4088 10.3428V10.3438ZM12.6668 6.49976C12.6668 7.22203 12.5245 7.93723 12.2481 8.60452C11.9717 9.27181 11.5666 9.87813 11.0559 10.3889C10.5452 10.8996 9.93884 11.3047 9.27155 11.5811C8.60426 11.8575 7.88906 11.9998 7.16679 11.9998C6.44452 11.9998 5.72932 11.8575 5.06203 11.5811C4.39474 11.3047 3.78843 10.8996 3.2777 10.3889C2.76698 9.87813 2.36185 9.27181 2.08545 8.60452C1.80905 7.93723 1.66679 7.22203 1.66679 6.49976C1.66679 5.04107 2.24625 3.64213 3.2777 2.61068C4.30915 1.57923 5.7081 0.999765 7.16679 0.999765C8.62548 0.999765 10.0244 1.57923 11.0559 2.61068C12.0873 3.64213 12.6668 5.04107 12.6668 6.49976Z" fill="white"/>
</g>
<path d="M17 1.58334C16.5858 1.58334 16.25 1.91913 16.25 2.33334C16.25 2.74756 16.5858 3.08334 17 3.08334V1.58334ZM17 3.08334L32 3.08334V1.58334L17 1.58334V3.08334Z" fill="white"/>
<path d="M18 6.58334C17.5858 6.58334 17.25 6.91913 17.25 7.33334C17.25 7.74756 17.5858 8.08334 18 8.08334L18 6.58334ZM18 8.08334L32 8.08334L32 6.58334L18 6.58334L18 8.08334Z" fill="white"/>
<path d="M19 11.5833C18.5858 11.5833 18.25 11.9191 18.25 12.3333C18.25 12.7476 18.5858 13.0833 19 13.0833L19 11.5833ZM19 13.0833L32 13.0833L32 11.5833L19 11.5833L19 13.0833Z" fill="white"/>
<defs>
<clipPath id="clip0_60_525">
<rect width="16" height="16" fill="white" transform="translate(0.666748 -3.05176e-05)"/>
</clipPath>
</defs>
</svg>
