<svg width="18" height="19" viewBox="0 0 18 19" fill="none" xmlns="http://www.w3.org/2000/svg">
<g clip-path="url(#clip0_60_260)">
<path d="M11.1211 11.6211C11.707 11.0352 12 10.3281 12 9.5C12 8.67187 11.707 7.96485 11.1211 7.37891C10.5352 6.79297 9.82813 6.5 9 6.5C8.17187 6.5 7.46485 6.79297 6.87891 7.37891C6.29297 7.96485 6 8.67187 6 9.5C6 10.3281 6.29297 11.0352 6.87891 11.6211C7.46485 12.207 8.17187 12.5 9 12.5C9.82813 12.5 10.5352 12.207 11.1211 11.6211ZM12.2695 6.23047C13.168 7.12891 13.6172 8.21874 13.6172 9.5C13.6172 10.7813 13.168 11.8711 12.2695 12.7695C11.3711 13.668 10.2813 14.1172 9 14.1172C7.71874 14.1172 6.62891 13.668 5.73047 12.7695C4.83203 11.8711 4.38281 10.7813 4.38281 9.5C4.38281 8.21874 4.83203 7.12891 5.73047 6.23047C6.62891 5.33203 7.71874 4.88281 9 4.88281C10.2813 4.88281 11.3711 5.33203 12.2695 6.23047ZM14.5664 3.93359C14.7773 4.14453 14.8828 4.39844 14.8828 4.69531C14.8828 4.99219 14.7773 5.24609 14.5664 5.45703C14.3555 5.66797 14.1016 5.77344 13.8047 5.77344C13.5078 5.77344 13.2539 5.66797 13.043 5.45703C12.832 5.24609 12.7266 4.99219 12.7266 4.69531C12.7266 4.39844 12.832 4.14453 13.043 3.93359C13.2539 3.72266 13.5078 3.61719 13.8047 3.61719C14.1016 3.61719 14.3555 3.72266 14.5664 3.93359ZM9.89063 2.11719C9.35156 2.11719 9.05469 2.11719 9 2.11719C8.94531 2.11719 8.64649 2.11523 8.10352 2.11133C7.56054 2.10742 7.14844 2.10742 6.86719 2.11133C6.58594 2.11523 6.20899 2.12695 5.73633 2.14648C5.26367 2.16602 4.86133 2.20508 4.5293 2.26367C4.19726 2.32227 3.91797 2.39453 3.69141 2.48047C3.30078 2.63672 2.95703 2.86328 2.66016 3.16016C2.36328 3.45703 2.13672 3.80078 1.98047 4.19141C1.89453 4.41797 1.82227 4.69726 1.76367 5.0293C1.70508 5.36133 1.66602 5.76367 1.64648 6.23633C1.62695 6.70899 1.61523 7.08594 1.61133 7.36719C1.60742 7.64844 1.60742 8.06054 1.61133 8.60352C1.61523 9.14649 1.61719 9.44531 1.61719 9.5C1.61719 9.55469 1.61523 9.85351 1.61133 10.3965C1.60742 10.9395 1.60742 11.3516 1.61133 11.6328C1.61523 11.9141 1.62695 12.291 1.64648 12.7637C1.66602 13.2363 1.70508 13.6387 1.76367 13.9707C1.82227 14.3027 1.89453 14.582 1.98047 14.8086C2.13672 15.1992 2.36328 15.543 2.66016 15.8398C2.95703 16.1367 3.30078 16.3633 3.69141 16.5195C3.91797 16.6055 4.19726 16.6777 4.5293 16.7363C4.86133 16.7949 5.26367 16.834 5.73633 16.8535C6.20899 16.873 6.58594 16.8848 6.86719 16.8887C7.14844 16.8926 7.56054 16.8926 8.10352 16.8887C8.64649 16.8848 8.94531 16.8828 9 16.8828C9.05469 16.8828 9.35351 16.8848 9.89649 16.8887C10.4395 16.8926 10.8516 16.8926 11.1328 16.8887C11.4141 16.8848 11.791 16.873 12.2637 16.8535C12.7363 16.834 13.1387 16.7949 13.4707 16.7363C13.8027 16.6777 14.082 16.6055 14.3086 16.5195C14.6992 16.3633 15.043 16.1367 15.3398 15.8398C15.6367 15.543 15.8633 15.1992 16.0195 14.8086C16.1055 14.582 16.1777 14.3027 16.2363 13.9707C16.2949 13.6387 16.334 13.2363 16.3535 12.7637C16.373 12.291 16.3848 11.9141 16.3887 11.6328C16.3926 11.3516 16.3926 10.9395 16.3887 10.3965C16.3848 9.85351 16.3828 9.55469 16.3828 9.5C16.3828 9.44531 16.3848 9.14649 16.3887 8.60352C16.3926 8.06054 16.3926 7.64844 16.3887 7.36719C16.3848 7.08594 16.373 6.70899 16.3535 6.23633C16.334 5.76367 16.2949 5.36133 16.2363 5.0293C16.1777 4.69726 16.1055 4.41797 16.0195 4.19141C15.8633 3.80078 15.6367 3.45703 15.3398 3.16016C15.043 2.86328 14.6992 2.63672 14.3086 2.48047C14.082 2.39453 13.8027 2.32227 13.4707 2.26367C13.1387 2.20508 12.7363 2.16602 12.2637 2.14648C11.791 2.12695 11.4141 2.11523 11.1328 2.11133C10.8516 2.10742 10.4375 2.10938 9.89063 2.11719ZM17.9414 5.78516C17.9805 6.47266 18 7.71093 18 9.5C18 11.2891 17.9805 12.5273 17.9414 13.2148C17.8633 14.8399 17.3789 16.0977 16.4883 16.9883C15.5977 17.8789 14.3399 18.3633 12.7148 18.4414C12.0273 18.4805 10.7891 18.5 9 18.5C7.21093 18.5 5.97266 18.4805 5.28516 18.4414C3.66015 18.3633 2.40235 17.8789 1.51172 16.9883C0.621089 16.0977 0.136719 14.8399 0.0585937 13.2148C0.0195311 12.5273 0 11.2891 0 9.5C0 7.71093 0.0195311 6.47266 0.0585937 5.78516C0.136719 4.16015 0.621089 2.90235 1.51172 2.01172C2.40235 1.12109 3.66015 0.636719 5.28516 0.558594C5.97266 0.519531 7.21093 0.5 9 0.5C10.7891 0.5 12.0273 0.519531 12.7148 0.558594C14.3399 0.636719 15.5977 1.12109 16.4883 2.01172C17.3789 2.90235 17.8633 4.16015 17.9414 5.78516Z" fill="white"/>
</g>
<defs>
<clipPath id="clip0_60_260">
<rect width="18" height="18" fill="white" transform="translate(0 0.5)"/>
</clipPath>
</defs>
</svg>
