<svg width="19" height="19" viewBox="0 0 19 19" fill="none" xmlns="http://www.w3.org/2000/svg">
<g clip-path="url(#clip0_60_266)">
<path d="M4.31706 6.34877V18.5H0.235026V6.34877H4.31706ZM4.57682 2.59673C4.58507 3.19346 4.37685 3.6921 3.95215 4.09264C3.52745 4.49319 2.96875 4.69346 2.27604 4.69346H2.2513C1.57508 4.69346 1.03082 4.49319 0.618489 4.09264C0.206161 3.6921 0 3.19346 0 2.59673C0 1.99182 0.212346 1.49115 0.637045 1.09469C1.06174 0.698227 1.61632 0.5 2.30078 0.5C2.98525 0.5 3.53363 0.698227 3.94596 1.09469C4.35829 1.49115 4.56858 1.99182 4.57682 2.59673ZM19 11.5354V18.5H14.9303V12.0014C14.9303 11.143 14.7633 10.4707 14.4294 9.98433C14.0954 9.49795 13.5738 9.25477 12.8646 9.25477C12.345 9.25477 11.91 9.39577 11.5596 9.67779C11.2091 9.95981 10.9473 10.3093 10.7741 10.7262C10.6834 10.9714 10.638 11.3025 10.638 11.7193V18.5H6.56836C6.58485 15.2384 6.5931 12.594 6.5931 10.5668C6.5931 8.5395 6.58898 7.3297 6.58073 6.93733L6.56836 6.34877H10.638V8.11444H10.6133C10.7782 7.85286 10.9473 7.62398 11.1204 7.42779C11.2936 7.23161 11.5266 7.01907 11.8193 6.79019C12.1121 6.56131 12.4708 6.38352 12.8955 6.25681C13.3202 6.13011 13.7923 6.06676 14.3118 6.06676C15.722 6.06676 16.8559 6.53065 17.7135 7.45845C18.5712 8.38624 19 9.74522 19 11.5354Z" fill="white"/>
</g>
<defs>
<clipPath id="clip0_60_266">
<rect width="19" height="18" fill="white" transform="translate(0 0.5)"/>
</clipPath>
</defs>
</svg>
