<svg width="21" height="17" viewBox="0 0 21 17" fill="none" xmlns="http://www.w3.org/2000/svg">
<g clip-path="url(#clip0_60_269)">
<path d="M21 2.4C20.4048 3.21667 19.6853 3.9125 18.8414 4.4875C18.8503 4.60417 18.8547 4.77917 18.8547 5.0125C18.8547 6.09584 18.6859 7.17708 18.3484 8.25625C18.0108 9.33542 17.4978 10.3708 16.8093 11.3625C16.1209 12.3542 15.3014 13.2312 14.3509 13.9937C13.4004 14.7563 12.2544 15.3646 10.9131 15.8188C9.57169 16.2729 8.13706 16.5 6.60914 16.5C4.20176 16.5 1.99874 15.8958 0 14.6875C0.310915 14.7208 0.657358 14.7375 1.03934 14.7375C3.03808 14.7375 4.81916 14.1625 6.38261 13.0125C5.44987 12.9958 4.61485 12.7271 3.87754 12.2063C3.14022 11.6854 2.63388 11.0208 2.3585 10.2125C2.65165 10.2542 2.92259 10.275 3.17132 10.275C3.5533 10.275 3.93084 10.2292 4.30393 10.1375C3.30901 9.94583 2.48509 9.48125 1.83217 8.74375C1.17925 8.00625 0.852792 7.15001 0.852792 6.175V6.125C1.45686 6.44167 2.10533 6.6125 2.79822 6.6375C2.21193 6.27083 1.74556 5.79167 1.39911 5.2C1.05266 4.60833 0.879441 3.96667 0.879441 3.275C0.879441 2.54166 1.07487 1.8625 1.46574 1.2375C2.54061 2.47917 3.84866 3.47291 5.38991 4.21875C6.93116 4.96459 8.58121 5.37917 10.3401 5.4625C10.269 5.14583 10.2335 4.8375 10.2335 4.5375C10.2335 3.42083 10.6532 2.46875 11.4927 1.68125C12.3322 0.893746 13.3471 0.5 14.5374 0.5C15.7811 0.5 16.8293 0.924996 17.6821 1.775C18.6504 1.6 19.5609 1.275 20.4137 0.8C20.085 1.75834 19.4543 2.5 18.5216 3.025C19.3477 2.94167 20.1739 2.73334 21 2.4Z" fill="white"/>
</g>
<defs>
<clipPath id="clip0_60_269">
<rect width="21" height="16" fill="white" transform="translate(0 0.5)"/>
</clipPath>
</defs>
</svg>
