<svg width="90" height="28" viewBox="0 0 90 28" fill="none" xmlns="http://www.w3.org/2000/svg">
<path d="M12.7321 11.6685L13.5376 7.57587H16.9926L18.9771 16.829L21.0095 7.57587H24.5601L20.7823 20.4241H17.2795L15.2351 11.0648L13.9196 17.0987L12.7321 11.6685Z" fill="white"/>
<path d="M30.056 12.609C30.6901 12.5306 31.1436 12.4322 31.4169 12.3142C31.9066 12.1102 32.1516 11.792 32.1516 11.3596C32.1516 10.8333 31.9636 10.4696 31.588 10.2692C31.2121 10.0688 30.6607 9.96867 29.9339 9.96867C29.118 9.96867 28.5401 10.1653 28.2009 10.558C27.9584 10.849 27.797 11.2417 27.7163 11.7367H24.4286C24.5003 10.6132 24.8206 9.68993 25.389 8.96674C26.2936 7.83516 27.8463 7.26938 30.0478 7.26938C31.4807 7.26938 32.7531 7.54857 33.866 8.10627C34.9785 8.66443 35.5349 9.71744 35.5349 11.2652V17.1591C35.5349 17.5677 35.5426 18.0628 35.5588 18.6443C35.5827 19.0843 35.6502 19.3829 35.762 19.5401C35.8734 19.6973 36.0407 19.8269 36.2639 19.929V20.4241H32.5581C32.4542 20.1648 32.3825 19.9212 32.3429 19.6933C32.3028 19.4655 32.2712 19.2061 32.2473 18.9154C31.774 19.4183 31.2288 19.8465 30.6116 20.2002C29.8742 20.6167 29.0403 20.8249 28.1105 20.8249C26.924 20.8249 25.9439 20.4929 25.1704 19.8289C24.3967 19.1649 24.0102 18.2238 24.0102 17.0058C24.0102 15.4264 24.6324 14.2828 25.8767 13.5755C26.5593 13.1907 27.5629 12.9155 28.8878 12.7504L30.056 12.609ZM32.1395 14.1767C31.9213 14.3105 31.7008 14.4183 31.4788 14.5008C31.2565 14.5833 30.9516 14.66 30.5638 14.7307L29.7883 14.8724C29.0612 14.9981 28.5391 15.1513 28.2221 15.332C27.6854 15.6386 27.4174 16.114 27.4174 16.7583C27.4174 17.332 27.5811 17.7465 27.9091 18.0019C28.2365 18.2572 28.6353 18.3849 29.1046 18.3849C29.8493 18.3849 30.5349 18.1728 31.1623 17.7484C31.7894 17.3241 32.115 16.5501 32.1395 15.4264L32.1395 14.1767Z" fill="white"/>
<path d="M36.0953 9.96867V7.57586H37.9125V4.11038H41.2838V7.57586H43.3999V9.96867H41.2838V16.8762C41.2838 17.4027 41.3516 17.7307 41.487 17.8604C41.6226 17.9901 42.037 18.0549 42.7304 18.0549C42.834 18.0549 42.9436 18.0529 43.0591 18.049C43.1748 18.0451 43.2883 18.0392 43.3999 18.0313V20.542L41.7859 20.601C40.176 20.6559 39.0761 20.3809 38.4863 19.7758C38.1038 19.3908 37.9125 18.7975 37.9125 17.996V9.96867H36.0953Z" fill="white"/>
<path d="M47.3097 16.3222C47.3819 16.9194 47.5381 17.3437 47.7779 17.5952C48.2023 18.0431 48.9874 18.2671 50.1326 18.2671C50.805 18.2671 51.3396 18.1689 51.7361 17.9724C52.1325 17.776 52.3309 17.4812 52.3309 17.0883C52.3309 16.7112 52.1709 16.4244 51.8516 16.2279C51.5328 16.0314 50.3443 15.6936 48.2875 15.2142C46.8066 14.8527 45.7635 14.4006 45.1578 13.8584C44.552 13.3243 44.2491 12.5542 44.2491 11.5481C44.2491 10.3618 44.7224 9.34221 45.6689 8.48935C46.6153 7.63699 47.9473 7.21042 49.6646 7.21042C51.2937 7.21042 52.6217 7.53091 53.648 8.17108C54.6741 8.81182 55.2633 9.91785 55.4153 11.4892H52.008C51.9602 11.0572 51.8362 10.7154 51.6364 10.4637C51.2608 10.0082 50.6212 9.78005 49.7184 9.78005C48.9749 9.78005 48.4454 9.89425 48.1298 10.1219C47.8143 10.35 47.6563 10.6169 47.6563 10.9234C47.6563 11.3087 47.8242 11.5876 48.16 11.7603C48.4953 11.9413 49.6813 12.2517 51.7172 12.6915C53.0751 13.0061 54.0921 13.4812 54.7696 14.1177C55.4391 14.7624 55.7738 15.5678 55.7738 16.5344C55.7738 17.8074 55.2927 18.8466 54.3303 19.6521C53.368 20.4575 51.8806 20.8603 49.8681 20.8603C47.8158 20.8603 46.3005 20.434 45.3221 19.5814C44.3438 18.7288 43.8547 17.6423 43.8547 16.3222H47.3097Z" fill="white"/>
<path d="M67.86 18.8525C66.7602 20.1913 65.0904 20.8603 62.8508 20.8603C60.6112 20.8603 58.9415 20.1913 57.8416 18.8525C56.7418 17.5137 56.1918 15.9018 56.1918 14.0175C56.1918 12.165 56.7418 10.5592 57.8416 9.201C58.9415 7.84254 60.6112 7.1633 62.8508 7.1633C65.0904 7.1633 66.7602 7.84254 67.86 9.201C68.9599 10.5592 69.5098 12.165 69.5098 14.0175C69.5098 15.9018 68.9599 17.5137 67.86 18.8525ZM65.1342 16.9955C65.6683 16.2971 65.9352 15.3046 65.9352 14.0175C65.9352 12.7308 65.6683 11.7402 65.1342 11.0457C64.6002 10.3515 63.8351 10.004 62.8389 10.004C61.8426 10.004 61.0755 10.3515 60.5375 11.0457C59.9995 11.7402 59.7306 12.7308 59.7306 14.0175C59.7306 15.3046 59.9995 16.2971 60.5375 16.9955C61.0755 17.6939 61.8426 18.0431 62.8389 18.0431C63.8351 18.0431 64.6002 17.6939 65.1342 16.9955Z" fill="white"/>
<path d="M81.0365 8.31255C81.8898 9.00797 82.3162 10.1614 82.3162 11.7721V20.4241H78.8253V12.609C78.8253 11.9334 78.7347 11.4148 78.5523 11.053C78.2201 10.393 77.5869 10.0629 76.654 10.0629C75.5063 10.0629 74.7192 10.5462 74.2924 11.5128C74.0702 12.0238 73.9596 12.676 73.9596 13.4695V20.4241H70.5525V7.57587H73.852V9.4736C74.2884 8.81351 74.7013 8.33832 75.0903 8.0473C75.7887 7.52871 76.6734 7.26938 77.7449 7.26938C79.0864 7.26938 80.1833 7.61713 81.0365 8.31255Z" fill="white"/>
<path d="M13.1503 20.4241H10.2703L6.61205 7.57587H10.2703L13.1503 20.4241Z" fill="white"/>
<path d="M82.3162 24.5978H56.9913V22.0331H82.3162V24.5978Z" fill="#C4007A"/>
</svg>
